<svg xmlns="http://www.w3.org/2000/svg" width="64" height="64" viewBox="0 0 64 64">
<defs><linearGradient id="g" x1="13" y1="9" x2="51" y2="55"><stop stop-color="#eefcff"/><stop offset=".3" stop-color="#94edff"/><stop offset=".68" stop-color="#42cbed"/><stop offset="1" stop-color="#4b82f5"/></linearGradient></defs>
<circle cx="26" cy="21" r="10" fill="#36d6f1" opacity=".14" stroke="#44def5" stroke-width="4"/>
<circle cx="45" cy="24" r="7.5" fill="#36d6f1" opacity=".12" stroke="#44def5" stroke-width="3"/>
<path d="M8 52c1.1-13.1 7.2-19.7 18-19.7S42.9 38.9 44 52H8z" fill="#36d6f1" opacity=".14" stroke="#44def5" stroke-width="4" stroke-linejoin="round"/>
<path d="M38 35c10.5-.8 16.7 5 18 17H43.5c-.6-6.6-2.4-11.8-5.5-17z" fill="#36d6f1" opacity=".12" stroke="#44def5" stroke-width="3" stroke-linejoin="round"/>
<circle cx="26" cy="18" r="9" fill="url(#g)"/><circle cx="45" cy="21.5" r="6.5" fill="url(#g)"/>
<path d="M10 49c1.5-10.8 6.8-16.2 16-16.2S40.5 38.2 42 49H10z" fill="url(#g)"/>
<path d="M39 35c8.2.2 13 4.9 14.5 14H43c-.7-5.9-2-10.6-4-14z" fill="url(#g)"/>
<path d="M19 13c3-2.4 8.4-2.9 12-.7" fill="none" stroke="#fff" stroke-opacity=".62" stroke-width="2" stroke-linecap="round"/>
</svg>